<?xml version="1.0" standalone="no"?>
<!DOCTYPE svg PUBLIC "-//W3C//DTD SVG 20010904//EN"
 "http://www.w3.org/TR/2001/REC-SVG-20010904/DTD/svg10.dtd">
<svg version="1.0" xmlns="http://www.w3.org/2000/svg"
 width="700.000000pt" height="700.000000pt" viewBox="0 0 700.000000 700.000000"
 preserveAspectRatio="xMidYMid meet">

<g transform="translate(0.000000,700.000000) scale(0.100000,-0.100000)"
fill="#000000" stroke="none">
<path d="M3085 6739 c-225 -131 -421 -245 -435 -253 -43 -22 -158 -89 -670
-386 -272 -158 -719 -416 -993 -574 l-497 -288 2 -1746 3 -1747 120 -68 c66
-38 149 -86 185 -107 36 -21 279 -161 540 -312 724 -418 1563 -903 1877 -1085
159 -92 293 -163 307 -163 13 0 46 13 73 29 26 16 289 168 583 338 861 498
1669 965 2038 1178 l342 198 -2 1746 -3 1745 -55 31 c-30 17 -273 158 -540
312 -267 154 -501 290 -520 300 -98 55 -446 257 -455 263 -10 8 -574 333 -655
378 -25 14 -210 121 -413 239 -245 142 -376 213 -395 212 -16 0 -184 -92 -437
-240z m780 -354 c847 -489 1417 -818 1853 -1070 l482 -278 0 -1541 0 -1541
-183 -104 c-100 -58 -578 -334 -1062 -614 -1469 -851 -1410 -818 -1435 -809
-8 2 -94 51 -190 107 -272 160 -1125 653 -1660 960 -267 153 -528 303 -580
333 -52 31 -115 66 -138 79 -24 13 -50 30 -58 38 -12 12 -14 239 -12 1556 l3
1542 75 42 c121 67 723 413 1300 747 294 171 684 396 865 501 182 105 348 201
370 214 22 12 47 20 55 17 8 -3 150 -83 315 -179z"/>
<path d="M3443 6137 c-59 -34 -260 -152 -445 -262 l-338 -199 0 -2186 0 -2185
170 -109 c94 -60 174 -106 178 -102 4 4 8 498 10 1097 l4 1089 669 0 669 0 0
220 0 220 -670 0 -670 0 2 872 3 871 262 144 261 144 239 -142 c525 -312 641
-379 651 -379 13 0 219 317 211 324 -7 6 -777 459 -941 554 l-157 91 -108 -62z"/>
<path d="M2133 5313 l-183 -107 0 -880 c0 -512 -4 -876 -9 -870 -7 8 -395
1328 -409 1392 -2 12 -9 22 -15 22 -6 0 -80 -39 -164 -87 l-153 -87 0 -1021
c0 -562 -3 -1136 -6 -1276 l-7 -254 152 -88 c84 -49 156 -86 159 -82 4 4 9
400 12 882 l5 875 174 -659 c366 -1385 377 -1425 401 -1443 54 -41 232 -142
238 -135 4 4 8 680 10 1503 3 1443 -4 2422 -17 2422 -3 0 -88 -49 -188 -107z"/>
<path d="M4808 5403 c-33 -37 -177 -278 -169 -283 4 -3 112 -72 239 -154 l232
-149 0 -1316 c0 -724 3 -1441 7 -1594 6 -248 8 -277 22 -272 9 3 91 50 183
103 l168 97 1 210 c1 116 5 735 8 1377 l6 1168 244 -165 c135 -91 248 -165
253 -165 4 0 8 96 8 213 l0 212 -28 16 c-15 9 -278 174 -584 367 -306 194
-561 352 -566 352 -5 0 -16 -8 -24 -17z"/>
</g>
</svg>
